<mxfile host="app.diagrams.net" modified="2024-04-08T11:10:14.651Z" agent="Mozilla/5.0 (Macintosh; Intel Mac OS X 10_15_7) AppleWebKit/537.36 (KHTML, like Gecko) Chrome/123.0.0.0 Safari/537.36" etag="Efg5FbeIuG5-5wo_VH5Z" version="24.2.2" type="device">
  <diagram name="Page-1" id="5-ZjLKcNC6-3Rc-spFLh">
    <mxGraphModel dx="856" dy="772" grid="1" gridSize="10" guides="1" tooltips="1" connect="1" arrows="1" fold="1" page="1" pageScale="1" pageWidth="827" pageHeight="1169" math="0" shadow="0">
      <root>
        <mxCell id="0" />
        <mxCell id="1" parent="0" />
        <mxCell id="MdvIhbr0o4ruSrGY_KvM-2" style="edgeStyle=orthogonalEdgeStyle;rounded=0;orthogonalLoop=1;jettySize=auto;html=1;exitX=0.5;exitY=0;exitDx=0;exitDy=0;" edge="1" parent="1" source="MdvIhbr0o4ruSrGY_KvM-1">
          <mxGeometry relative="1" as="geometry">
            <mxPoint x="96" y="60" as="targetPoint" />
          </mxGeometry>
        </mxCell>
        <mxCell id="MdvIhbr0o4ruSrGY_KvM-1" value="My Account" style="points=[[0,0],[0.25,0],[0.5,0],[0.75,0],[1,0],[1,0.25],[1,0.5],[1,0.75],[1,1],[0.75,1],[0.5,1],[0.25,1],[0,1],[0,0.75],[0,0.5],[0,0.25]];outlineConnect=0;gradientColor=none;html=1;whiteSpace=wrap;fontSize=12;fontStyle=0;container=1;pointerEvents=0;collapsible=0;recursiveResize=0;shape=mxgraph.aws4.group;grIcon=mxgraph.aws4.group_aws_cloud_alt;strokeColor=#232F3E;fillColor=none;verticalAlign=top;align=left;spacingLeft=30;fontColor=#232F3E;dashed=0;" vertex="1" parent="1">
          <mxGeometry x="40" y="80" width="760" height="640" as="geometry" />
        </mxCell>
        <mxCell id="MdvIhbr0o4ruSrGY_KvM-6" value="Central Europe" style="points=[[0,0],[0.25,0],[0.5,0],[0.75,0],[1,0],[1,0.25],[1,0.5],[1,0.75],[1,1],[0.75,1],[0.5,1],[0.25,1],[0,1],[0,0.75],[0,0.5],[0,0.25]];outlineConnect=0;gradientColor=none;html=1;whiteSpace=wrap;fontSize=12;fontStyle=0;container=1;pointerEvents=0;collapsible=0;recursiveResize=0;shape=mxgraph.aws4.group;grIcon=mxgraph.aws4.group_region;strokeColor=#00A4A6;fillColor=none;verticalAlign=top;align=left;spacingLeft=30;fontColor=#147EBA;dashed=1;" vertex="1" parent="MdvIhbr0o4ruSrGY_KvM-1">
          <mxGeometry x="40" y="40" width="680" height="560" as="geometry" />
        </mxCell>
        <mxCell id="MdvIhbr0o4ruSrGY_KvM-21" value="" style="sketch=0;points=[[0,0,0],[0.25,0,0],[0.5,0,0],[0.75,0,0],[1,0,0],[0,1,0],[0.25,1,0],[0.5,1,0],[0.75,1,0],[1,1,0],[0,0.25,0],[0,0.5,0],[0,0.75,0],[1,0.25,0],[1,0.5,0],[1,0.75,0]];outlineConnect=0;fontColor=#232F3E;fillColor=#8C4FFF;strokeColor=#ffffff;dashed=0;verticalLabelPosition=bottom;verticalAlign=top;align=center;html=1;fontSize=12;fontStyle=0;aspect=fixed;shape=mxgraph.aws4.resourceIcon;resIcon=mxgraph.aws4.route_53;" vertex="1" parent="MdvIhbr0o4ruSrGY_KvM-1">
          <mxGeometry x="560" width="40" height="40" as="geometry" />
        </mxCell>
        <mxCell id="MdvIhbr0o4ruSrGY_KvM-3" value="Two Tier Architecture&lt;div&gt;&lt;br&gt;&lt;/div&gt;" style="text;strokeColor=none;fillColor=none;html=1;fontSize=24;fontStyle=1;verticalAlign=middle;align=center;" vertex="1" parent="1">
          <mxGeometry x="370" y="40" width="100" height="40" as="geometry" />
        </mxCell>
        <mxCell id="MdvIhbr0o4ruSrGY_KvM-7" value="VPC" style="points=[[0,0],[0.25,0],[0.5,0],[0.75,0],[1,0],[1,0.25],[1,0.5],[1,0.75],[1,1],[0.75,1],[0.5,1],[0.25,1],[0,1],[0,0.75],[0,0.5],[0,0.25]];outlineConnect=0;gradientColor=none;html=1;whiteSpace=wrap;fontSize=12;fontStyle=0;container=1;pointerEvents=0;collapsible=0;recursiveResize=0;shape=mxgraph.aws4.group;grIcon=mxgraph.aws4.group_vpc2;strokeColor=#8C4FFF;fillColor=none;verticalAlign=top;align=left;spacingLeft=30;fontColor=#AAB7B8;" vertex="1" parent="1">
          <mxGeometry x="120" y="160" width="618.45" height="480" as="geometry" />
        </mxCell>
        <mxCell id="MdvIhbr0o4ruSrGY_KvM-8" value="eu-central-1" style="fillColor=none;strokeColor=#147EBA;dashed=1;verticalAlign=top;fontStyle=0;fontColor=#147EBA;whiteSpace=wrap;html=1;" vertex="1" parent="MdvIhbr0o4ruSrGY_KvM-7">
          <mxGeometry x="40" y="40" width="200" height="400" as="geometry" />
        </mxCell>
        <mxCell id="MdvIhbr0o4ruSrGY_KvM-9" value="eu-central-2" style="fillColor=none;strokeColor=#147EBA;dashed=1;verticalAlign=top;fontStyle=0;fontColor=#147EBA;whiteSpace=wrap;html=1;" vertex="1" parent="MdvIhbr0o4ruSrGY_KvM-7">
          <mxGeometry x="360" y="40" width="200" height="400" as="geometry" />
        </mxCell>
        <mxCell id="MdvIhbr0o4ruSrGY_KvM-13" value="Public subnet A" style="points=[[0,0],[0.25,0],[0.5,0],[0.75,0],[1,0],[1,0.25],[1,0.5],[1,0.75],[1,1],[0.75,1],[0.5,1],[0.25,1],[0,1],[0,0.75],[0,0.5],[0,0.25]];outlineConnect=0;gradientColor=none;html=1;whiteSpace=wrap;fontSize=12;fontStyle=0;container=1;pointerEvents=0;collapsible=0;recursiveResize=0;shape=mxgraph.aws4.group;grIcon=mxgraph.aws4.group_security_group;grStroke=0;strokeColor=#7AA116;fillColor=#F2F6E8;verticalAlign=top;align=left;spacingLeft=30;fontColor=#248814;dashed=0;" vertex="1" parent="MdvIhbr0o4ruSrGY_KvM-7">
          <mxGeometry x="80" y="80" width="120" height="160" as="geometry" />
        </mxCell>
        <mxCell id="MdvIhbr0o4ruSrGY_KvM-14" value="" style="sketch=0;points=[[0,0,0],[0.25,0,0],[0.5,0,0],[0.75,0,0],[1,0,0],[0,1,0],[0.25,1,0],[0.5,1,0],[0.75,1,0],[1,1,0],[0,0.25,0],[0,0.5,0],[0,0.75,0],[1,0.25,0],[1,0.5,0],[1,0.75,0]];outlineConnect=0;fontColor=#232F3E;fillColor=#ED7100;strokeColor=#ffffff;dashed=0;verticalLabelPosition=bottom;verticalAlign=top;align=center;html=1;fontSize=12;fontStyle=0;aspect=fixed;shape=mxgraph.aws4.resourceIcon;resIcon=mxgraph.aws4.ec2;" vertex="1" parent="MdvIhbr0o4ruSrGY_KvM-7">
          <mxGeometry x="80" y="130" width="78" height="78" as="geometry" />
        </mxCell>
        <mxCell id="MdvIhbr0o4ruSrGY_KvM-16" value="Public subnet B" style="points=[[0,0],[0.25,0],[0.5,0],[0.75,0],[1,0],[1,0.25],[1,0.5],[1,0.75],[1,1],[0.75,1],[0.5,1],[0.25,1],[0,1],[0,0.75],[0,0.5],[0,0.25]];outlineConnect=0;gradientColor=none;html=1;whiteSpace=wrap;fontSize=12;fontStyle=0;container=1;pointerEvents=0;collapsible=0;recursiveResize=0;shape=mxgraph.aws4.group;grIcon=mxgraph.aws4.group_security_group;grStroke=0;strokeColor=#7AA116;fillColor=#F2F6E8;verticalAlign=top;align=left;spacingLeft=30;fontColor=#248814;dashed=0;" vertex="1" parent="MdvIhbr0o4ruSrGY_KvM-7">
          <mxGeometry x="395" y="80" width="125" height="160" as="geometry" />
        </mxCell>
        <mxCell id="MdvIhbr0o4ruSrGY_KvM-18" value="" style="sketch=0;points=[[0,0,0],[0.25,0,0],[0.5,0,0],[0.75,0,0],[1,0,0],[0,1,0],[0.25,1,0],[0.5,1,0],[0.75,1,0],[1,1,0],[0,0.25,0],[0,0.5,0],[0,0.75,0],[1,0.25,0],[1,0.5,0],[1,0.75,0]];outlineConnect=0;fontColor=#232F3E;fillColor=#ED7100;strokeColor=#ffffff;dashed=0;verticalLabelPosition=bottom;verticalAlign=top;align=center;html=1;fontSize=12;fontStyle=0;aspect=fixed;shape=mxgraph.aws4.resourceIcon;resIcon=mxgraph.aws4.ec2;" vertex="1" parent="MdvIhbr0o4ruSrGY_KvM-7">
          <mxGeometry x="395" y="130" width="78" height="78" as="geometry" />
        </mxCell>
        <mxCell id="MdvIhbr0o4ruSrGY_KvM-20" value="Internet&#xa;gateway" style="sketch=0;outlineConnect=0;fontColor=#232F3E;gradientColor=none;strokeColor=#232F3E;fillColor=#ffffff;dashed=0;verticalLabelPosition=bottom;verticalAlign=top;align=center;html=1;fontSize=12;fontStyle=0;aspect=fixed;shape=mxgraph.aws4.resourceIcon;resIcon=mxgraph.aws4.internet_gateway;" vertex="1" parent="MdvIhbr0o4ruSrGY_KvM-7">
          <mxGeometry x="270" y="-20" width="60" height="60" as="geometry" />
        </mxCell>
        <mxCell id="MdvIhbr0o4ruSrGY_KvM-32" value="" style="edgeStyle=orthogonalEdgeStyle;rounded=0;orthogonalLoop=1;jettySize=auto;html=1;" edge="1" parent="MdvIhbr0o4ruSrGY_KvM-7" source="MdvIhbr0o4ruSrGY_KvM-22" target="MdvIhbr0o4ruSrGY_KvM-14">
          <mxGeometry relative="1" as="geometry" />
        </mxCell>
        <mxCell id="MdvIhbr0o4ruSrGY_KvM-33" value="" style="edgeStyle=orthogonalEdgeStyle;rounded=0;orthogonalLoop=1;jettySize=auto;html=1;" edge="1" parent="MdvIhbr0o4ruSrGY_KvM-7" source="MdvIhbr0o4ruSrGY_KvM-22" target="MdvIhbr0o4ruSrGY_KvM-18">
          <mxGeometry relative="1" as="geometry" />
        </mxCell>
        <mxCell id="MdvIhbr0o4ruSrGY_KvM-22" value="" style="sketch=0;outlineConnect=0;fontColor=#232F3E;gradientColor=none;fillColor=#8C4FFF;strokeColor=none;dashed=0;verticalLabelPosition=bottom;verticalAlign=top;align=center;html=1;fontSize=12;fontStyle=0;aspect=fixed;pointerEvents=1;shape=mxgraph.aws4.application_load_balancer;" vertex="1" parent="MdvIhbr0o4ruSrGY_KvM-7">
          <mxGeometry x="260" y="110" width="80" height="80" as="geometry" />
        </mxCell>
        <mxCell id="MdvIhbr0o4ruSrGY_KvM-26" value="Private subnet&amp;nbsp; &amp;nbsp; &amp;nbsp; &amp;nbsp; &amp;nbsp; &amp;nbsp; &amp;nbsp; &amp;nbsp;A&lt;div&gt;&lt;br&gt;&lt;/div&gt;" style="points=[[0,0],[0.25,0],[0.5,0],[0.75,0],[1,0],[1,0.25],[1,0.5],[1,0.75],[1,1],[0.75,1],[0.5,1],[0.25,1],[0,1],[0,0.75],[0,0.5],[0,0.25]];outlineConnect=0;gradientColor=none;html=1;whiteSpace=wrap;fontSize=12;fontStyle=0;container=1;pointerEvents=0;collapsible=0;recursiveResize=0;shape=mxgraph.aws4.group;grIcon=mxgraph.aws4.group_security_group;grStroke=0;strokeColor=#00A4A6;fillColor=#E6F6F7;verticalAlign=top;align=left;spacingLeft=30;fontColor=#147EBA;dashed=0;" vertex="1" parent="MdvIhbr0o4ruSrGY_KvM-7">
          <mxGeometry x="80" y="280" width="120" height="120" as="geometry" />
        </mxCell>
        <mxCell id="MdvIhbr0o4ruSrGY_KvM-27" value="Private subnet&amp;nbsp; &amp;nbsp; &amp;nbsp; &amp;nbsp; &amp;nbsp; &amp;nbsp; &amp;nbsp; &amp;nbsp;&lt;span style=&quot;background-color: initial;&quot;&gt;B&lt;/span&gt;&lt;div&gt;&lt;br&gt;&lt;div&gt;&lt;span style=&quot;background-color: initial;&quot;&gt;&lt;br&gt;&lt;/span&gt;&lt;/div&gt;&lt;/div&gt;" style="points=[[0,0],[0.25,0],[0.5,0],[0.75,0],[1,0],[1,0.25],[1,0.5],[1,0.75],[1,1],[0.75,1],[0.5,1],[0.25,1],[0,1],[0,0.75],[0,0.5],[0,0.25]];outlineConnect=0;gradientColor=none;html=1;whiteSpace=wrap;fontSize=12;fontStyle=0;container=1;pointerEvents=0;collapsible=0;recursiveResize=0;shape=mxgraph.aws4.group;grIcon=mxgraph.aws4.group_security_group;grStroke=0;strokeColor=#00A4A6;fillColor=#E6F6F7;verticalAlign=top;align=left;spacingLeft=30;fontColor=#147EBA;dashed=0;" vertex="1" parent="MdvIhbr0o4ruSrGY_KvM-7">
          <mxGeometry x="397.5" y="280" width="122.5" height="120" as="geometry" />
        </mxCell>
        <mxCell id="MdvIhbr0o4ruSrGY_KvM-39" value="" style="sketch=0;points=[[0,0,0],[0.25,0,0],[0.5,0,0],[0.75,0,0],[1,0,0],[0,1,0],[0.25,1,0],[0.5,1,0],[0.75,1,0],[1,1,0],[0,0.25,0],[0,0.5,0],[0,0.75,0],[1,0.25,0],[1,0.5,0],[1,0.75,0]];outlineConnect=0;fontColor=#232F3E;fillColor=#C925D1;strokeColor=#ffffff;dashed=0;verticalLabelPosition=bottom;verticalAlign=top;align=center;html=1;fontSize=12;fontStyle=0;aspect=fixed;shape=mxgraph.aws4.resourceIcon;resIcon=mxgraph.aws4.rds;" vertex="1" parent="MdvIhbr0o4ruSrGY_KvM-27">
          <mxGeometry y="42" width="68" height="68" as="geometry" />
        </mxCell>
        <mxCell id="MdvIhbr0o4ruSrGY_KvM-40" value="RDS&lt;div&gt;&lt;br&gt;&lt;/div&gt;" style="text;html=1;align=center;verticalAlign=middle;whiteSpace=wrap;rounded=0;" vertex="1" parent="MdvIhbr0o4ruSrGY_KvM-27">
          <mxGeometry x="-2.5" y="120" width="50" as="geometry" />
        </mxCell>
        <mxCell id="MdvIhbr0o4ruSrGY_KvM-28" value="" style="sketch=0;outlineConnect=0;fontColor=#232F3E;gradientColor=none;fillColor=#7AA116;strokeColor=none;dashed=0;verticalLabelPosition=bottom;verticalAlign=top;align=center;html=1;fontSize=12;fontStyle=0;aspect=fixed;pointerEvents=1;shape=mxgraph.aws4.bucket;" vertex="1" parent="MdvIhbr0o4ruSrGY_KvM-7">
          <mxGeometry x="560" y="81.2" width="56.91" height="59.2" as="geometry" />
        </mxCell>
        <mxCell id="MdvIhbr0o4ruSrGY_KvM-30" value="" style="sketch=0;points=[[0,0,0],[0.25,0,0],[0.5,0,0],[0.75,0,0],[1,0,0],[0,1,0],[0.25,1,0],[0.5,1,0],[0.75,1,0],[1,1,0],[0,0.25,0],[0,0.5,0],[0,0.75,0],[1,0.25,0],[1,0.5,0],[1,0.75,0]];outlineConnect=0;fontColor=#232F3E;fillColor=#C925D1;strokeColor=#ffffff;dashed=0;verticalLabelPosition=bottom;verticalAlign=top;align=center;html=1;fontSize=12;fontStyle=0;aspect=fixed;shape=mxgraph.aws4.resourceIcon;resIcon=mxgraph.aws4.rds;" vertex="1" parent="MdvIhbr0o4ruSrGY_KvM-7">
          <mxGeometry x="80" y="322" width="68" height="68" as="geometry" />
        </mxCell>
        <mxCell id="MdvIhbr0o4ruSrGY_KvM-35" value="" style="edgeStyle=orthogonalEdgeStyle;rounded=0;orthogonalLoop=1;jettySize=auto;html=1;" edge="1" parent="MdvIhbr0o4ruSrGY_KvM-7" source="MdvIhbr0o4ruSrGY_KvM-34" target="MdvIhbr0o4ruSrGY_KvM-9">
          <mxGeometry relative="1" as="geometry" />
        </mxCell>
        <mxCell id="MdvIhbr0o4ruSrGY_KvM-34" value="S3 Bucket&lt;div&gt;&lt;br&gt;&lt;/div&gt;" style="text;html=1;align=center;verticalAlign=middle;whiteSpace=wrap;rounded=0;" vertex="1" parent="MdvIhbr0o4ruSrGY_KvM-7">
          <mxGeometry x="563.45" y="147.5" width="50" height="25" as="geometry" />
        </mxCell>
        <mxCell id="MdvIhbr0o4ruSrGY_KvM-36" value="Application Load Balancer" style="text;html=1;align=center;verticalAlign=middle;whiteSpace=wrap;rounded=0;" vertex="1" parent="MdvIhbr0o4ruSrGY_KvM-7">
          <mxGeometry x="260" y="190" width="80" height="40" as="geometry" />
        </mxCell>
        <mxCell id="MdvIhbr0o4ruSrGY_KvM-37" value="RDS&lt;div&gt;&lt;br&gt;&lt;/div&gt;" style="text;html=1;align=center;verticalAlign=middle;whiteSpace=wrap;rounded=0;" vertex="1" parent="MdvIhbr0o4ruSrGY_KvM-7">
          <mxGeometry x="80" y="400" width="50" as="geometry" />
        </mxCell>
        <mxCell id="MdvIhbr0o4ruSrGY_KvM-38" style="edgeStyle=orthogonalEdgeStyle;rounded=0;orthogonalLoop=1;jettySize=auto;html=1;exitX=0.75;exitY=0;exitDx=0;exitDy=0;" edge="1" parent="MdvIhbr0o4ruSrGY_KvM-7" source="MdvIhbr0o4ruSrGY_KvM-37" target="MdvIhbr0o4ruSrGY_KvM-37">
          <mxGeometry relative="1" as="geometry" />
        </mxCell>
        <mxCell id="MdvIhbr0o4ruSrGY_KvM-45" value="" style="sketch=0;points=[[0,0,0],[0.25,0,0],[0.5,0,0],[0.75,0,0],[1,0,0],[0,1,0],[0.25,1,0],[0.5,1,0],[0.75,1,0],[1,1,0],[0,0.25,0],[0,0.5,0],[0,0.75,0],[1,0.25,0],[1,0.5,0],[1,0.75,0]];outlineConnect=0;fontColor=#232F3E;fillColor=#7AA116;strokeColor=#ffffff;dashed=0;verticalLabelPosition=bottom;verticalAlign=top;align=center;html=1;fontSize=12;fontStyle=0;aspect=fixed;shape=mxgraph.aws4.resourceIcon;resIcon=mxgraph.aws4.elastic_file_system;" vertex="1" parent="MdvIhbr0o4ruSrGY_KvM-7">
          <mxGeometry x="280" y="330" width="78" height="78" as="geometry" />
        </mxCell>
        <mxCell id="MdvIhbr0o4ruSrGY_KvM-46" value="Amazon EFS." style="text;html=1;align=center;verticalAlign=middle;whiteSpace=wrap;rounded=0;" vertex="1" parent="MdvIhbr0o4ruSrGY_KvM-7">
          <mxGeometry x="294" y="408" width="50" height="30" as="geometry" />
        </mxCell>
        <mxCell id="MdvIhbr0o4ruSrGY_KvM-51" value="" style="edgeStyle=orthogonalEdgeStyle;html=1;endArrow=openThin;elbow=vertical;startArrow=openThin;startFill=0;endFill=0;strokeColor=#545B64;rounded=0;entryX=0;entryY=0.25;entryDx=0;entryDy=0;entryPerimeter=0;exitX=1;exitY=0.25;exitDx=0;exitDy=0;exitPerimeter=0;" edge="1" parent="MdvIhbr0o4ruSrGY_KvM-7" source="MdvIhbr0o4ruSrGY_KvM-30" target="MdvIhbr0o4ruSrGY_KvM-39">
          <mxGeometry width="100" relative="1" as="geometry">
            <mxPoint x="240" y="270" as="sourcePoint" />
            <mxPoint x="340" y="270" as="targetPoint" />
            <Array as="points">
              <mxPoint x="148" y="320" />
              <mxPoint x="397" y="320" />
            </Array>
          </mxGeometry>
        </mxCell>
      </root>
    </mxGraphModel>
  </diagram>
</mxfile>
